<?xml version="1.0" encoding="UTF-8"?>
<!-- Created with Inkscape (http://www.inkscape.org/) -->
<svg width="150" height="300" version="1.1" viewBox="0 0 150 300" xmlns="http://www.w3.org/2000/svg" xmlns:cc="http://creativecommons.org/ns#" xmlns:dc="http://purl.org/dc/elements/1.1/" xmlns:rdf="http://www.w3.org/1999/02/22-rdf-syntax-ns#">
 <metadata>
  <rdf:RDF>
   <cc:Work rdf:about="">
    <dc:format>image/svg+xml</dc:format>
    <dc:type rdf:resource="http://purl.org/dc/dcmitype/StillImage"/>
    <dc:title/>
   </cc:Work>
  </rdf:RDF>
 </metadata>
 <g fill="#fc0" stroke="#000" stroke-linecap="round" stroke-width="2">
  <circle cx="30" cy="75" r="20"/>
  <circle cx="30" cy="125" r="20"/>
  <circle cx="30" cy="175" r="20"/>
 </g>
 <circle cx="30" cy="225" r="20" fill="#0c0" stroke="#000" stroke-linecap="round" stroke-width="2"/>
 <circle cx="30" cy="275" r="20" fill="#f00" stroke="#000" stroke-linecap="round" stroke-width="2"/>
 <g fill="#fc0" stroke="#000" stroke-linecap="round" stroke-width="2">
  <circle cx="120" cy="75" r="20"/>
  <circle cx="120" cy="125" r="20"/>
  <circle cx="120" cy="175" r="20"/>
 </g>
 <g stroke="#000" stroke-linecap="round" stroke-width="2">
  <circle cx="120" cy="225" r="20" fill="#0c0"/>
  <circle cx="120" cy="275" r="20" fill="#f00"/>
  <circle cx="30" cy="25" r="20" fill="#04f"/>
  <circle cx="120" cy="25" r="20" fill="#04f"/>
 </g>
 <g fill="none" stroke-linecap="round" stroke-width="2">
  <g stroke="#f00">
   <path d="m95 275h50"/>
   <path d="m98.35 262.5 43.301 25"/>
   <path d="m107.5 253.35 25 43.301"/>
   <path d="m120 250v50"/>
   <path d="m132.5 253.35-25 43.301"/>
   <path d="m141.65 262.5-43.301 25"/>
   <path d="m5.0003 275h50"/>
   <path d="m8.3496 262.5 43.301 25"/>
   <path d="m17.5 253.35 25 43.301"/>
   <path d="m30 250v50"/>
   <path d="m42.5 253.35-25 43.301"/>
   <path d="m51.651 262.5-43.301 25"/>
  </g>
  <g stroke="#04f">
   <path d="m95 25h50"/>
   <path d="m98.35 12.5 43.301 25"/>
   <path d="m107.5 3.3491 25 43.301"/>
   <path d="m120-2.6149e-4v50"/>
   <path d="m132.5 3.3491-25 43.301"/>
   <path d="m141.65 12.5-43.301 25"/>
   <path d="m5.0002 25h50"/>
   <path d="m8.3496 12.5 43.301 25"/>
   <path d="m17.5 3.3491 25 43.301"/>
   <path d="m30-2.6349e-4v50"/>
   <path d="m42.5 3.3491-25 43.301"/>
   <path d="m51.651 12.5-43.301 25"/>
  </g>
 </g>
 <g fill="#666" fill-opacity=".66667">
  <circle cx="30" cy="225" r="20"/>
  <circle cx="120" cy="225" r="20"/>
  <circle cx="30" cy="175" r="20"/>
  <circle cx="120" cy="175" r="20"/>
  <circle cx="30" cy="125" r="20"/>
  <circle cx="120" cy="125" r="20"/>
  <circle cx="30" cy="75" r="20"/>
  <circle cx="120" cy="75" r="20"/>
 </g>
 <path d="m75 295v-290" fill="none" stroke="#000" stroke-width="50"/>
 <circle cx="30" cy="25" r="12.5"/>
 <circle cx="120" cy="25" r="12.5"/>
</svg>
