<svg xmlns="http://www.w3.org/2000/svg" viewBox="0 0 6000 196" width="6000" height="196">
  <defs>
    <linearGradient id="asphalt" x1="0" y1="0" x2="0" y2="1">
      <stop offset="0%" stop-color="#3a3a3a"/>
      <stop offset="50%" stop-color="#444444"/>
      <stop offset="100%" stop-color="#3a3a3a"/>
    </linearGradient>
    <pattern id="checker" patternUnits="userSpaceOnUse" width="2" height="2">
      <rect x="0" y="0" width="1" height="1" fill="white"/>
      <rect x="1" y="0" width="1" height="1" fill="black"/>
      <rect x="0" y="1" width="1" height="1" fill="black"/>
      <rect x="1" y="1" width="1" height="1" fill="white"/>
    </pattern>
    <pattern id="groove" patternUnits="userSpaceOnUse" width="1" height="1">
      <rect x="0" y="0" width="1" height="1" fill="rgba(0,0,0,0.06)"/>
    </pattern>
    <filter id="shadow" x="-2%" y="-2%" width="104%" height="104%">
      <feDropShadow dx="0" dy="1" stdDeviation="0.6" flood-opacity="0.3"/>
    </filter>
    <filter id="glow">
      <feGaussianBlur stdDeviation="0.3" result="blur"/>
      <feMerge>
        <feMergeNode in="blur"/>
        <feMergeNode in="SourceGraphic"/>
      </feMerge>
    </filter>
  </defs>
  <rect x="0" y="0" width="6000" height="196" fill="#3a7d3a"/>
  <rect x="0" y="10" width="6000" height="176" fill="url(#asphalt)" filter="url(#shadow)"/>
  <rect x="0" y="10" width="6000" height="176" fill="url(#groove)" opacity="0.6"/>
  <rect x="0" y="10" width="6000" height="1" fill="white"/>
  <rect x="0" y="91" width="6000" height="1" fill="white"/>
  <rect x="0" y="92" width="6000" height="1" fill="#ffcc00" opacity="0.8"/>
  <rect x="0" y="103" width="6000" height="1" fill="#ffcc00" opacity="0.8"/>
  <line x1="0" y1="98" x2="6000" y2="98" stroke="#ffcc00" stroke-width="1" stroke-dasharray="4,3" opacity="0.6"/>
  <rect x="0" y="104" width="6000" height="1" fill="white"/>
  <rect x="0" y="185" width="6000" height="1" fill="white"/>
  <rect x="699" y="10" width="1" height="176" fill="white"/>
  <g opacity="0.12">
    <line x1="704" y1="91" x2="704" y2="104" stroke="white" stroke-width="1"/>
    <line x1="838" y1="91" x2="838" y2="104" stroke="white" stroke-width="1"/>
    <line x1="971" y1="91" x2="971" y2="104" stroke="white" stroke-width="1"/>
    <line x1="1105" y1="91" x2="1105" y2="104" stroke="white" stroke-width="1"/>
    <line x1="1239" y1="91" x2="1239" y2="104" stroke="white" stroke-width="1"/>
    <line x1="1373" y1="91" x2="1373" y2="104" stroke="white" stroke-width="1"/>
    <line x1="1507" y1="91" x2="1507" y2="104" stroke="white" stroke-width="1"/>
    <line x1="1640" y1="91" x2="1640" y2="104" stroke="white" stroke-width="1"/>
    <line x1="1774" y1="91" x2="1774" y2="104" stroke="white" stroke-width="1"/>
    <line x1="1908" y1="91" x2="1908" y2="104" stroke="white" stroke-width="1"/>
    <line x1="2042" y1="91" x2="2042" y2="104" stroke="white" stroke-width="1"/>
    <line x1="2176" y1="91" x2="2176" y2="104" stroke="white" stroke-width="1"/>
    <line x1="2310" y1="91" x2="2310" y2="104" stroke="white" stroke-width="1"/>
    <line x1="2443" y1="91" x2="2443" y2="104" stroke="white" stroke-width="1"/>
    <line x1="2577" y1="91" x2="2577" y2="104" stroke="white" stroke-width="1"/>
    <line x1="2711" y1="91" x2="2711" y2="104" stroke="white" stroke-width="1"/>
    <line x1="2845" y1="91" x2="2845" y2="104" stroke="white" stroke-width="1"/>
    <line x1="2979" y1="91" x2="2979" y2="104" stroke="white" stroke-width="1"/>
    <line x1="3112" y1="91" x2="3112" y2="104" stroke="white" stroke-width="1"/>
    <line x1="3246" y1="91" x2="3246" y2="104" stroke="white" stroke-width="1"/>
    <line x1="3380" y1="91" x2="3380" y2="104" stroke="white" stroke-width="1"/>
    <line x1="3514" y1="91" x2="3514" y2="104" stroke="white" stroke-width="1"/>
    <line x1="3648" y1="91" x2="3648" y2="104" stroke="white" stroke-width="1"/>
    <line x1="3782" y1="91" x2="3782" y2="104" stroke="white" stroke-width="1"/>
    <line x1="3915" y1="91" x2="3915" y2="104" stroke="white" stroke-width="1"/>
    <line x1="4049" y1="91" x2="4049" y2="104" stroke="white" stroke-width="1"/>
    <line x1="4183" y1="91" x2="4183" y2="104" stroke="white" stroke-width="1"/>
    <line x1="4317" y1="91" x2="4317" y2="104" stroke="white" stroke-width="1"/>
    <line x1="4451" y1="91" x2="4451" y2="104" stroke="white" stroke-width="1"/>
    <line x1="4584" y1="91" x2="4584" y2="104" stroke="white" stroke-width="1"/>
    <line x1="4718" y1="91" x2="4718" y2="104" stroke="white" stroke-width="1"/>
  </g>
  <rect x="4724" y="10" width="5" height="176" fill="url(#checker)" filter="url(#glow)"/>
  <rect x="4724" y="10" width="1" height="176" fill="black" opacity="0.6"/>
  <rect x="4728" y="10" width="1" height="176" fill="black" opacity="0.6"/>
  <line x1="4737" y1="10" x2="4737" y2="186" stroke="white" stroke-width="1" opacity="0.06"/>
  <line x1="4749" y1="10" x2="4749" y2="186" stroke="white" stroke-width="1" opacity="0.06"/>
  <line x1="4761" y1="10" x2="4761" y2="186" stroke="white" stroke-width="1" opacity="0.06"/>
  <line x1="4773" y1="10" x2="4773" y2="186" stroke="white" stroke-width="1" opacity="0.06"/>
  <line x1="4785" y1="10" x2="4785" y2="186" stroke="white" stroke-width="1" opacity="0.06"/>
  <line x1="0" y1="51" x2="6000" y2="51" stroke="white" stroke-width="1" stroke-dasharray="2,2" opacity="0.4"/>
  <line x1="0" y1="145" x2="6000" y2="145" stroke="white" stroke-width="1" stroke-dasharray="2,2" opacity="0.4"/>
</svg>