<svg xmlns="http://www.w3.org/2000/svg" viewBox="0 0 8 100" width="8" height="100">
  <defs>
    <pattern id="asphalt" patternUnits="userSpaceOnUse" width="2" height="2">
      <rect x="0" y="0" width="2" height="2" fill="#3a3a3a"/>
      <rect x="0" y="0" width="1" height="1" fill="#3e3e3e"/>
      <rect x="1" y="1" width="1" height="1" fill="#3e3e3e"/>
    </pattern>
  </defs>

  <!-- Grass (1px top and bottom) -->
  <rect x="0" y="0" width="8" height="4" fill="#2d6b2d"/>
  <rect x="0" y="96" width="8" height="4" fill="#2d6b2d"/>

  <!-- Asphalt background for entire track (y=1 through y=23) -->
  <rect x="0" y="4" width="8" height="92" fill="url(#asphalt)"/>

  <!-- White lane limiters -->
  <rect x="0" y="4" width="8" height="2" fill="white" shape-rendering="crispEdges"/>
  <rect x="0" y="38" width="8" height="2" fill="white" shape-rendering="crispEdges"/>
  <rect x="0" y="60" width="8" height="2" fill="white" shape-rendering="crispEdges"/>
  <rect x="0" y="94" width="8" height="2" fill="white" shape-rendering="crispEdges"/>

  <!-- Yellow separator limiters -->
  <rect x="0" y="40" width="8" height="2" fill="#ffcc00" shape-rendering="crispEdges"/>
  <rect x="0" y="58" width="8" height="2" fill="#ffcc00" shape-rendering="crispEdges"/>

  <!-- Lane center dotted lines (white, dashed) -->
  <line x1="0" y1="22" x2="8" y2="22" stroke="white" stroke-width="1" stroke-dasharray="2,2" shape-rendering="crispEdges"/>
  <line x1="0" y1="78" x2="8" y2="78" stroke="white" stroke-width="1" stroke-dasharray="2,2" shape-rendering="crispEdges"/>

  <!-- Lane separator center dashed line (yellow) -->
  <line x1="1" y1="50" x2="7" y2="50" stroke="#ffcc00" stroke-width="1" stroke-dasharray="4,4" shape-rendering="crispEdges"/>
</svg>
